<?xml version="1.0" encoding="iso-8859-1"?>
<!-- Generator: Adobe Illustrator 19.0.0, SVG Export Plug-In . SVG Version: 6.00 Build 0)  -->
<svg version="1.1" id="Capa_1" xmlns="http://www.w3.org/2000/svg" xmlns:xlink="http://www.w3.org/1999/xlink" x="0px" y="0px"
	 viewBox="0 0 512 512" style="enable-background:new 0 0 512 512;" xml:space="preserve">
<path style="fill:#F2EDEC;" d="M376.485,359.531l-104-104c-4.687-4.687-12.284-4.687-16.971,0c-4.686,4.687-4.686,12.284,0,16.971
	l104,104c2.343,2.343,5.414,3.515,8.485,3.515s6.142-1.171,8.485-3.515C381.171,371.815,381.171,364.217,376.485,359.531z"/>
<path style="fill:#55D4BE;" d="M509.657,464.418l-120-120c-3.124-3.124-8.189-3.124-11.313,0l-33.941,33.941
	c-3.125,3.124-3.125,8.189,0,11.313l120,120c3.082,3.082,8.231,3.082,11.313,0l33.941-33.941
	C512.781,472.607,512.781,467.542,509.657,464.418z"/>
<path style="fill:#24BFB2;" d="M354.123,368.638l-9.721,9.721c-3.125,3.124-3.125,8.189,0,11.313l120,120
	c3.082,3.082,8.231,3.082,11.313,0l9.721-9.721L354.123,368.638z"/>
<path style="fill:#FAD000;" d="M176,0.016c-97.047,0-176,78.953-176,176s78.953,176,176,176s176-78.953,176-176
	S273.047,0.016,176,0.016z"/>
<path style="fill:#F2C416;" d="M176,16.016c-88.224,0-160,71.776-160,160s71.776,160,160,160s160-71.776,160-160
	S264.224,16.016,176,16.016z"/>
<path style="fill:#E4DAD8;" d="M176,32.016c-79.402,0-144,64.598-144,144s64.598,144,144,144s144-64.598,144-144
	S255.402,32.016,176,32.016z"/>
<path style="fill:#F2EDEC;" d="M176,48.016c-70.579,0-128,57.421-128,128s57.421,128,128,128s128-57.421,128-128
	S246.579,48.016,176,48.016z"/>
<g>
	<path style="fill:#F56C6C;" d="M132,96.016L132,96.016c-2.209,0-4,1.791-4,4v160c0,6.627,5.373,12,12,12l0,0
		c6.627,0,12-5.373,12-12v-76h8c4.418,0,8-3.582,8-8v-44C168,112.134,151.882,96.016,132,96.016z"/>
	<path style="fill:#F56C6C;" d="M240,96.016c-4.418,0-8,3.582-8,8v40h-8v-40c0-4.418-3.582-8-8-8s-8,3.582-8,8v40h-8v-40
		c0-4.418-3.582-8-8-8s-8,3.582-8,8v48c0,8.837,7.163,16,16,16h4v92c0,6.627,5.373,12,12,12s12-5.373,12-12v-92h4
		c8.837,0,16-7.163,16-16v-48C248,99.598,244.418,96.016,240,96.016z"/>
</g>
<g>
</g>
<g>
</g>
<g>
</g>
<g>
</g>
<g>
</g>
<g>
</g>
<g>
</g>
<g>
</g>
<g>
</g>
<g>
</g>
<g>
</g>
<g>
</g>
<g>
</g>
<g>
</g>
<g>
</g>
</svg>
