<?xml version="1.0" encoding="iso-8859-1"?>
<!-- Generator: Adobe Illustrator 19.0.0, SVG Export Plug-In . SVG Version: 6.00 Build 0)  -->
<svg version="1.1" id="Capa_1" xmlns="http://www.w3.org/2000/svg" xmlns:xlink="http://www.w3.org/1999/xlink" x="0px" y="0px"
	 viewBox="0 0 512 512" style="enable-background:new 0 0 512 512;" xml:space="preserve">
<g>
	<g>
		<path d="M509.799,465.179L389.564,344.944c-2.935-2.935-7.693-2.935-10.627,0l-3.188,3.188l-62.579-62.579
			c24.088-30.094,38.517-68.238,38.517-109.694c0-96.96-78.883-175.843-175.843-175.843S0,78.898,0,175.858
			s78.883,175.843,175.843,175.843c41.456,0,79.6-14.429,109.695-38.517l62.579,62.579l-3.188,3.188
			c-2.935,2.935-2.935,7.693,0,10.627l120.235,120.235c2.895,2.895,7.732,2.895,10.627,0l34.007-34.007
			C512.733,472.872,512.733,468.113,509.799,465.179z M175.843,336.673c-88.673,0-160.814-72.141-160.814-160.814
			S87.17,15.044,175.843,15.044s160.814,72.141,160.814,160.814S264.517,336.673,175.843,336.673z M296.894,303.286
			c2.179-2.071,4.305-4.197,6.376-6.376l61.851,61.851l-6.376,6.376L296.894,303.286z M470.478,493.874L360.87,384.266
			l23.381-23.381l109.608,109.608L470.478,493.874z"/>
	</g>
</g>
<g>
	<g>
		<path d="M277.67,74.349c-2.931-2.94-7.689-2.947-10.627-0.017c-2.94,2.93-2.947,7.688-0.017,10.627
			c24.226,24.302,37.568,56.585,37.568,90.9c0,70.994-57.758,128.751-128.751,128.751S47.092,246.852,47.092,175.858
			S104.85,47.107,175.843,47.107c21.283,0,42.368,5.299,60.975,15.324c3.653,1.97,8.212,0.603,10.18-3.051
			c1.969-3.653,0.603-8.211-3.051-10.18c-20.791-11.202-44.341-17.122-68.103-17.122c-79.281,0-143.781,64.5-143.781,143.781
			s64.5,143.781,143.781,143.781s143.78-64.5,143.78-143.781C319.624,137.538,304.724,101.487,277.67,74.349z"/>
	</g>
</g>
<g>
	<g>
		<path d="M123.742,88.187h-4.008c-4.15,0-7.515,3.365-7.515,7.515v156.305c0,10.773,8.765,19.538,19.538,19.538
			c10.773,0,19.538-8.765,19.538-19.538v-60.618h8.517c4.15,0,7.515-3.365,7.515-7.515v-52.102
			C167.327,107.739,147.775,88.187,123.742,88.187z M152.297,176.359h-8.517c-4.15,0-7.515,3.365-7.515,7.515v68.133
			c0,2.486-2.023,4.509-4.509,4.509c-2.486,0-4.509-2.023-4.509-4.509V103.431c14.098,1.733,25.049,13.783,25.049,28.341V176.359z"
			/>
	</g>
</g>
<g>
	<g>
		<path d="M239.969,88.187c-4.15,0-7.515,3.365-7.515,7.515v32.564h-9.018V95.702c0-4.15-3.365-7.515-7.515-7.515
			c-4.15,0-7.515,3.365-7.515,7.515v32.564h-9.018V95.702c0-4.15-3.365-7.515-7.515-7.515s-7.515,3.365-7.515,7.515v48.094
			c0,8.662,4.73,16.435,12.023,20.522v87.689c0,10.773,8.765,19.538,19.538,19.538c10.773,0,19.538-8.765,19.538-19.538v-87.689
			c7.293-4.087,12.023-11.86,12.023-20.522V95.702C247.483,91.552,244.119,88.187,239.969,88.187z M232.454,143.796
			c0,3.876-2.626,7.26-6.385,8.229c-3.32,0.856-5.638,3.849-5.638,7.276v92.705c0,2.486-2.023,4.509-4.509,4.509
			c-2.486,0-4.509-2.023-4.509-4.509v-92.705c0-3.428-2.319-6.421-5.638-7.276c-3.759-0.97-6.385-4.354-6.385-8.229v-0.501h33.065
			V143.796z"/>
	</g>
</g>
<g>
</g>
<g>
</g>
<g>
</g>
<g>
</g>
<g>
</g>
<g>
</g>
<g>
</g>
<g>
</g>
<g>
</g>
<g>
</g>
<g>
</g>
<g>
</g>
<g>
</g>
<g>
</g>
<g>
</g>
</svg>
