<svg height="512" viewBox="0 -16 512 512" width="512" xmlns="http://www.w3.org/2000/svg" class=""><g><path d="m296 432h-288v40h496v-40zm0 0" fill="#57a4ff" data-original="#57A4FF" class="" style="fill:#FF4F00" data-old_color="#FF5E00"></path><path d="m384 256h-88v176h88zm-32 96" fill="#57a4ff" data-original="#57A4FF" class="" style="fill:#FF4F00" data-old_color="#FF5E00"></path><path d="m8 16c0 8.835938 7.164062 16 16 16h464c8.835938 0 16-7.164062 16-16v-8h-496zm0 0" fill="#57a4ff" data-original="#57A4FF" class="" style="fill:#FF4F00" data-old_color="#FF5E00"></path><path d="m240 256h-112v104h112zm-24 48v-24zm0 0" fill="#57a4ff" data-original="#57A4FF" class="" style="fill:#FF4F00" data-old_color="#FF5E00"></path><path d="m328 144c0-26.507812-21.492188-48-48-48h-48c-26.507812 0-48 21.492188-48 48v32h144zm-48-24c13.253906 0 24 10.746094 24 24 0-13.253906-10.746094-24-24-24zm0 0" fill="#57a4ff" data-original="#57A4FF" class="" style="fill:#FF4F00" data-old_color="#FF5E00"></path><g fill="#004fac"><path d="m488 40c13.253906 0 24-10.746094 24-24v-8c0-4.417969-3.582031-8-8-8h-496c-4.417969 0-8 3.582031-8 8v8c0 13.253906 10.746094 24 24 24h40v384h-56c-4.417969 0-8 3.582031-8 8v40c0 4.417969 3.582031 8 8 8h496c4.417969 0 8-3.582031 8-8v-40c0-4.417969-3.582031-8-8-8h-56v-384zm-472-24h480c0 4.417969-3.582031 8-8 8h-464c-4.417969 0-8-3.582031-8-8zm480 448h-480v-24h480zm-120-40h-72v-160h72zm56 0h-40v-168c0-4.417969-3.582031-8-8-8h-88c-4.417969 0-8 3.582031-8 8v168h-208v-384h352zm0 0" data-original="#000000" class="active-path" style="fill:#F8F5F5" data-old_color="#F8F2F2"></path><path d="m128 368h112c4.417969 0 8-3.582031 8-8v-104c0-4.417969-3.582031-8-8-8h-112c-4.417969 0-8 3.582031-8 8v104c0 4.417969 3.582031 8 8 8zm8-104h96v88h-96zm0 0" data-original="#000000" class="active-path" style="fill:#F8F5F5" data-old_color="#F8F2F2"></path><path d="m280 112c-4.417969 0-8 3.582031-8 8s3.582031 8 8 8c8.835938 0 16 7.164062 16 16 0 4.417969 3.582031 8 8 8s8-3.582031 8-8c0-17.671875-14.328125-32-32-32zm0 0" data-original="#000000" class="active-path" style="fill:#F8F5F5" data-old_color="#F8F2F2"></path><path d="m152 184h208c4.417969 0 8-3.582031 8-8s-3.582031-8-8-8h-24v-24c-.039062-30.910156-25.089844-55.960938-56-56h-16c4.417969 0 8-3.582031 8-8s-3.582031-8-8-8h-16c-4.417969 0-8 3.582031-8 8s3.582031 8 8 8h-16c-30.910156.039062-55.960938 25.089844-56 56v24h-24c-4.417969 0-8 3.582031-8 8s3.582031 8 8 8zm40-40c.027344-22.082031 17.917969-39.972656 40-40h48c22.082031.027344 39.972656 17.917969 40 40v24h-128zm0 0" data-original="#000000" class="active-path" style="fill:#F8F5F5" data-old_color="#F8F2F2"></path><path d="m216 272h-16c-4.417969 0-8 3.582031-8 8s3.582031 8 8 8h8v16c0 4.417969 3.582031 8 8 8s8-3.582031 8-8v-24c0-4.417969-3.582031-8-8-8zm0 0" data-original="#000000" class="active-path" style="fill:#F8F5F5" data-old_color="#F8F2F2"></path><path d="m344 360h16c4.417969 0 8-3.582031 8-8s-3.582031-8-8-8h-16c-4.417969 0-8 3.582031-8 8s3.582031 8 8 8zm0 0" data-original="#000000" class="active-path" style="fill:#F8F5F5" data-old_color="#F8F2F2"></path></g></g> </svg>