<?xml version="1.0" encoding="iso-8859-1"?>
<!-- Generator: Adobe Illustrator 19.0.0, SVG Export Plug-In . SVG Version: 6.00 Build 0)  -->
<svg xmlns="http://www.w3.org/2000/svg" xmlns:xlink="http://www.w3.org/1999/xlink" version="1.1" id="Capa_1" x="0px" y="0px" viewBox="0 0 508 508" style="enable-background:new 0 0 508 508;" xml:space="preserve" width="512px" height="512px">
<g>
	<g>
		<path d="M204.8,139.15h-21.1l-52.7,90.3l-52.6-90.3h-21c-31.7,0.1-57.4,25.8-57.4,57.4v114.7c0,28.8,21.4,52.7,49.2,56.7v140H213    v-139.9c27.8-4,49.2-27.9,49.2-56.7v-114.8C262.2,164.95,236.5,139.15,204.8,139.15z M49.1,351.35c-18.6-3.7-32.7-20.3-32.7-40    v-114.8c0-8,2.4-15.5,6.4-21.8l26.3,72.4V351.35z M196.7,244.35v247.2h-0.1h-57.4v-90.1h-16.4v90.1H65.5v-247.2l-29.9-82.3    c13.5-8.8,33.4-6.4,33.4-6.4l62.1,106.4l62.1-106.4c0,0,23.9-1.9,33.4,6.4L196.7,244.35z M245.8,311.25    c0,19.8-14.1,36.3-32.8,40.1v-104.1l26.3-72.4c4.1,6.2,6.5,13.7,6.5,21.7V311.25z" fill="#FDFBFB"/>
	</g>
</g>
<g>
	<g>
		<path d="M131.1,0.05c-36.1-0.1-65.6,29.3-65.6,65.4c0,36.2,29.5,65.6,65.6,65.6c36.1,0,65.5-29.4,65.5-65.5    C196.6,29.45,167.2,0.05,131.1,0.05z M131.1,114.75c-27.1,0-49.2-22.1-49.2-49.3c0-27.1,22.1-49.1,49.2-49.1    c27.1,0,49.2,22.1,49.2,49.2C180.3,92.65,158.2,114.75,131.1,114.75z" fill="#FDFBFB"/>
	</g>
</g>
<g>
	<g>
		<path d="M278.6,122.85v16.4c63.3,0,114.7,51.5,114.7,114.7c0,63.3-51.5,114.7-114.7,114.7v16.4c72.3,0,131.1-58.8,131.1-131.1    S350.9,122.85,278.6,122.85z" fill="#FDFBFB"/>
	</g>
</g>
<g>
	<g>
		<path d="M508,301.35v-94.7l-41.4-10.4c-3.6-11.9-8.4-23.4-14.2-34.4l22-36.6l-67-67l-36.6,22c-11-5.8-22.5-10.6-34.4-14.2    L326,24.55h-94.7l-11.5,46l15.9,4l8.3-33.6h69.1l9.6,38.2c22.4,5.6,40,15.1,48.3,20l33.8-20.3l48.9,48.9l-20.3,33.8    c8.7,13.5,18.9,40,20,48.3l38.2,9.5v69.1l-38.2,9.6c-3.3,12.3-10.1,32.5-20,48.3l20.3,33.8l-48.9,48.9l-33.8-20.3    c-20.2,12.1-34.5,16-48.3,20l-9.6,38.2H244l-8.4-33.6l-15.9,4l11.5,46H326l10.4-41.4c11.9-3.6,23.4-8.4,34.4-14.2l36.6,22l67-67    l-22-36.6c5.8-11,10.6-22.5,14.2-34.4L508,301.35z" fill="#FDFBFB"/>
	</g>
</g>
<g>
</g>
<g>
</g>
<g>
</g>
<g>
</g>
<g>
</g>
<g>
</g>
<g>
</g>
<g>
</g>
<g>
</g>
<g>
</g>
<g>
</g>
<g>
</g>
<g>
</g>
<g>
</g>
<g>
</g>
</svg>
