<?xml version="1.0" encoding="iso-8859-1"?>
<!-- Generator: Adobe Illustrator 19.0.0, SVG Export Plug-In . SVG Version: 6.00 Build 0)  -->
<svg xmlns="http://www.w3.org/2000/svg" xmlns:xlink="http://www.w3.org/1999/xlink" version="1.1" id="Capa_1" x="0px" y="0px" viewBox="0 0 511.998 511.998" style="enable-background:new 0 0 511.998 511.998;" xml:space="preserve" width="512px" height="512px">
<g>
	<g>
		<g>
			<path d="M401.064,375.465c-14.114,0-25.6,11.486-25.6,25.6c0,14.114,11.486,25.6,25.6,25.6c14.114,0,25.6-11.486,25.6-25.6     C426.664,386.951,415.178,375.465,401.064,375.465z" fill="#ffffff"/>
			<path d="M505.068,382.838l-12.322-2.372c-5.777-1.109-10.325-4.89-12.476-10.368c-2.159-5.478-1.391-11.349,2.091-16.094     l7.748-10.547c2.492-3.405,2.133-8.115-0.853-11.093l-16.717-16.708c-2.893-2.876-7.432-3.319-10.829-1.024l-10.368,7.031     c-4.89,3.319-10.786,3.849-16.171,1.493c-5.393-2.355-9.003-7.04-9.899-12.86l-1.988-12.928     c-0.648-4.164-4.232-7.236-8.439-7.236h-23.629c-4.096,0-7.612,2.901-8.388,6.921l-3.055,15.915     c-1.084,5.658-4.762,10.163-10.078,12.365c-5.325,2.21-11.11,1.621-15.872-1.613l-13.414-9.088     c-3.371-2.287-7.927-1.852-10.82,1.024l-16.717,16.708c-2.987,2.978-3.345,7.689-0.853,11.093l7.748,10.539     c3.482,4.753,4.25,10.624,2.091,16.102c-2.15,5.478-6.699,9.259-12.476,10.368l-12.322,2.372     c-4.028,0.777-6.929,4.292-6.929,8.38v23.629c0,4.215,3.072,7.791,7.236,8.439l12.919,1.988     c5.828,0.896,10.522,4.506,12.868,9.899c2.355,5.393,1.818,11.29-1.493,16.171l-7.031,10.385     c-2.287,3.388-1.86,7.927,1.033,10.812l16.708,16.708c2.978,2.995,7.697,3.336,11.076,0.853l10.556-7.74     c4.745-3.473,10.615-4.233,16.085-2.091c5.487,2.15,9.267,6.699,10.377,12.484l2.364,12.314c0.777,4.028,4.292,6.929,8.388,6.929     h23.629c4.207,0,7.791-3.072,8.439-7.236l1.399-9.096c0.896-5.854,4.702-10.709,10.189-12.979     c5.478-2.278,11.597-1.527,16.384,1.971l7.415,5.444c3.388,2.483,8.098,2.142,11.085-0.853l16.708-16.708     c2.893-2.884,3.32-7.424,1.033-10.812l-7.031-10.385c-3.311-4.881-3.849-10.778-1.493-16.171     c2.347-5.393,7.04-9.003,12.868-9.899l12.919-1.988c4.164-0.648,7.236-4.224,7.236-8.439v-23.629     C511.997,387.13,509.096,383.614,505.068,382.838z M401.064,443.732c-23.526,0-42.667-19.14-42.667-42.667     c0-23.526,19.14-42.667,42.667-42.667c23.526,0,42.667,19.14,42.667,42.667C443.73,424.591,424.59,443.732,401.064,443.732z" fill="#ffffff"/>
			<path d="M292.814,333.073l-16.529-9.02c-7.253-3.951-11.75-11.537-11.75-19.797v-28.228c5.709-7.484,22.067-30.814,29.884-61.764     c8.064-6.468,12.783-16.145,12.783-26.53V153.6c0-8.218-3.072-16.188-8.533-22.4V85.803c0.478-4.685,2.347-32.631-17.852-55.68     C263.28,10.129,234.839,0,196.268,0c-38.579,0-67.021,10.129-84.557,30.123c-20.198,23.049-18.33,50.995-17.843,55.68V131.2     c-5.47,6.212-8.533,14.182-8.533,22.4v34.133c0,10.385,4.71,20.062,12.774,26.53c7.817,30.95,24.175,54.281,29.892,61.764v28.228     c0,8.26-4.506,15.846-11.75,19.797l-76.134,41.532c-24.755,13.5-40.115,39.39-40.115,67.576v36.173     c0,4.71,3.814,8.533,8.533,8.533h290.372c-16.145-21.427-25.839-47.966-25.839-76.8     C273.068,376.073,280.372,352.802,292.814,333.073z" fill="#ffffff"/>
		</g>
	</g>
</g>
<g>
</g>
<g>
</g>
<g>
</g>
<g>
</g>
<g>
</g>
<g>
</g>
<g>
</g>
<g>
</g>
<g>
</g>
<g>
</g>
<g>
</g>
<g>
</g>
<g>
</g>
<g>
</g>
<g>
</g>
</svg>
