<svg id="Layer_1" data-name="Layer 1" xmlns="http://www.w3.org/2000/svg" viewBox="0 0 170.96 205.78"><defs><style>.cls-1{fill:#fff;stroke:#fff;stroke-miterlimit:10;}</style></defs><title>whitelogo</title><path class="cls-1" d="M706.6,323.18c3-1.62,9.37-.57,15.42,3.35-3.25-4.49-11.16-8.66-17.09-14.86-9.48-11.47-13.32-28.91-33.35-40.07-18.36-10.23-27.77-3.79-27.77-3.79-4.17-4-12.84-4.59-26.69-5-15.57-.81-27.74-3.21-29,.54,0,0,16,4.11,23.14,6.39,14.58,4.66,17.4,15.25,17.84,17.56-1.12-3.91-16.1-14.41-41-17.79,2.67,2.15,16.2,12.72,30.2,22.17,16.52,15.31,21.22,23.43,20,32.71-1,8.6-12,13.79-15.5,30.35,12.15-18.8,15.08-14.16,14.52-14.59-3.1,2.26-10.37,13.14-10.37,13.14-12.12,17.49-11.43,43.29-11.43,43.29.48,11.94,2.92,23.82,7.08,32.63,2,4.27,7.42,18.19,22.9,25.19-14.24-11.94-12.19-27.85-12-25.66,0,0,2.85,18.68,22.92,30.84,0,0,26.59,20,63.78-10.13a50.65,50.65,0,0,1-25.66,7c-29.84,0-54-26.16-54-58.43a81.09,81.09,0,0,1,1.08-11.64c5-26.69,26.81-46.78,53-46.78,24.09,0,44.49,17,51.47,40.56l10.79-.64C751.84,338,714.83,323.71,706.6,323.18Zm-52.25-34.75a4.17,4.17,0,1,1,4.15-4.16A4.15,4.15,0,0,1,654.35,288.43Z" transform="translate(-586.41 -260.8)"/></svg>